solid STL generated by MeshLab
  facet normal -2.967982e-002 6.352077e-001 7.717709e-001
    outer loop
      vertex  5.530529e-001 8.325958e+001 -7.260776e+002
      vertex  3.310997e+000 8.863395e+001 -7.303950e+002
      vertex  -2.419179e+001 8.893118e+001 -7.316973e+002
    endloop
  endfacet
  facet normal 2.132978e-001 5.999770e-001 7.710588e-001
    outer loop
      vertex  3.310997e+000 8.863395e+001 -7.303950e+002
      vertex  1.465022e+001 8.117158e+001 -7.277251e+002
      vertex  2.384031e+001 8.970668e+001 -7.369087e+002
    endloop
  endfacet
  facet normal -6.770048e-001 5.310627e-001 5.095456e-001
    outer loop
      vertex  -6.279213e+001 9.232930e+001 -7.639595e+002
      vertex  -6.716505e+001 8.438148e+001 -7.614861e+002
      vertex  -4.693030e+001 8.937234e+001 -7.398029e+002
    endloop
  endfacet
  facet normal -5.673812e-002 5.668136e-001 8.218899e-001
    outer loop
      vertex  5.530529e-001 8.325958e+001 -7.260776e+002
      vertex  -2.419179e+001 8.893118e+001 -7.316973e+002
      vertex  -2.390348e+001 8.149171e+001 -7.265468e+002
    endloop
  endfacet
  facet normal -2.732071e-001 5.403825e-001 7.958295e-001
    outer loop
      vertex  -2.390348e+001 8.149171e+001 -7.265468e+002
      vertex  -2.419179e+001 8.893118e+001 -7.316973e+002
      vertex  -4.693030e+001 8.937234e+001 -7.398029e+002
    endloop
  endfacet
  facet normal -2.671782e-001 5.501553e-001 7.911668e-001
    outer loop
      vertex  -2.390348e+001 8.149171e+001 -7.265468e+002
      vertex  -4.693030e+001 8.937234e+001 -7.398029e+002
      vertex  -3.847464e+001 7.830344e+001 -7.292504e+002
    endloop
  endfacet
  facet normal 1.774760e-001 5.593687e-001 8.096968e-001
    outer loop
      vertex  5.530529e-001 8.325958e+001 -7.260776e+002
      vertex  1.465022e+001 8.117158e+001 -7.277251e+002
      vertex  3.310997e+000 8.863395e+001 -7.303950e+002
    endloop
  endfacet
  facet normal 6.293098e-001 5.485173e-001 5.505432e-001
    outer loop
      vertex  5.958777e+001 7.890724e+001 -7.659314e+002
      vertex  4.629604e+001 9.273746e+001 -7.645173e+002
      vertex  5.529857e+001 7.237940e+001 -7.545247e+002
    endloop
  endfacet
  facet normal 6.176996e-001 5.493591e-001 5.627181e-001
    outer loop
      vertex  4.629604e+001 9.273746e+001 -7.645173e+002
      vertex  2.384031e+001 8.970668e+001 -7.369087e+002
      vertex  5.529857e+001 7.237940e+001 -7.545247e+002
    endloop
  endfacet
  facet normal 6.158382e-001 4.944538e-001 6.133993e-001
    outer loop
      vertex  5.529857e+001 7.237940e+001 -7.545247e+002
      vertex  2.384031e+001 8.970668e+001 -7.369087e+002
      vertex  3.518989e+001 7.522681e+001 -7.366313e+002
    endloop
  endfacet
  facet normal -6.940722e-001 4.789487e-001 5.374681e-001
    outer loop
      vertex  -6.716505e+001 8.438148e+001 -7.614861e+002
      vertex  -6.202185e+001 7.373603e+001 -7.453579e+002
      vertex  -4.693030e+001 8.937234e+001 -7.398029e+002
    endloop
  endfacet
  facet normal -4.996560e-001 3.665417e-001 7.848510e-001
    outer loop
      vertex  -3.847464e+001 7.830344e+001 -7.292504e+002
      vertex  -4.693030e+001 8.937234e+001 -7.398029e+002
      vertex  -4.699438e+001 7.678027e+001 -7.339630e+002
    endloop
  endfacet
  facet normal -2.538975e-001 4.225760e-001 8.700377e-001
    outer loop
      vertex  -3.847464e+001 7.830344e+001 -7.292504e+002
      vertex  -2.945704e+001 6.872858e+001 -7.219684e+002
      vertex  -2.390348e+001 8.149171e+001 -7.265468e+002
    endloop
  endfacet
  facet normal -5.002542e-002 4.562969e-001 8.884203e-001
    outer loop
      vertex  5.530529e-001 8.325958e+001 -7.260776e+002
      vertex  -2.390348e+001 8.149171e+001 -7.265468e+002
      vertex  -1.435467e+001 7.069649e+001 -7.204646e+002
    endloop
  endfacet
  facet normal -7.487334e-001 4.178609e-001 5.145781e-001
    outer loop
      vertex  -6.716505e+001 8.438148e+001 -7.614861e+002
      vertex  -8.098720e+001 6.743186e+001 -7.678340e+002
      vertex  -6.202185e+001 7.373603e+001 -7.453579e+002
    endloop
  endfacet
  facet normal 1.641788e-001 3.954144e-001 9.037106e-001
    outer loop
      vertex  5.530529e-001 8.325958e+001 -7.260776e+002
      vertex  5.152062e-001 6.048343e+001 -7.161052e+002
      vertex  1.465022e+001 8.117158e+001 -7.277251e+002
    endloop
  endfacet
  facet normal -1.412593e-001 3.881523e-001 9.107050e-001
    outer loop
      vertex  -2.390348e+001 8.149171e+001 -7.265468e+002
      vertex  -2.945704e+001 6.872858e+001 -7.219684e+002
      vertex  -1.435467e+001 7.069649e+001 -7.204646e+002
    endloop
  endfacet
  facet normal 4.579748e-001 3.744120e-001 8.062721e-001
    outer loop
      vertex  3.518989e+001 7.522681e+001 -7.366313e+002
      vertex  2.384031e+001 8.970668e+001 -7.369087e+002
      vertex  1.465022e+001 8.117158e+001 -7.277251e+002
    endloop
  endfacet
  facet normal 6.442507e-001 3.804591e-001 6.634696e-001
    outer loop
      vertex  5.529857e+001 7.237940e+001 -7.545247e+002
      vertex  3.518989e+001 7.522681e+001 -7.366313e+002
      vertex  4.751907e+001 6.478523e+001 -7.426158e+002
    endloop
  endfacet
  facet normal -5.002723e-001 1.739443e-001 8.482164e-001
    outer loop
      vertex  -3.847464e+001 7.830344e+001 -7.292504e+002
      vertex  -4.699438e+001 7.678027e+001 -7.339630e+002
      vertex  -2.945704e+001 6.872858e+001 -7.219684e+002
    endloop
  endfacet
  facet normal -7.594673e-001 3.651008e-001 5.384337e-001
    outer loop
      vertex  -8.098720e+001 6.743186e+001 -7.678340e+002
      vertex  -7.299406e+001 6.238897e+001 -7.531401e+002
      vertex  -6.202185e+001 7.373603e+001 -7.453579e+002
    endloop
  endfacet
  facet normal 6.911382e-003 4.010665e-001 9.160228e-001
    outer loop
      vertex  5.152062e-001 6.048343e+001 -7.161052e+002
      vertex  5.530529e-001 8.325958e+001 -7.260776e+002
      vertex  -1.435467e+001 7.069649e+001 -7.204646e+002
    endloop
  endfacet
  facet normal 4.569020e-001 3.600212e-001 8.134035e-001
    outer loop
      vertex  3.518989e+001 7.522681e+001 -7.366313e+002
      vertex  1.465022e+001 8.117158e+001 -7.277251e+002
      vertex  2.950335e+001 6.168345e+001 -7.274427e+002
    endloop
  endfacet
  facet normal -6.352462e-001 3.728298e-001 6.763580e-001
    outer loop
      vertex  -6.202185e+001 7.373603e+001 -7.453579e+002
      vertex  -5.668092e+001 6.182763e+001 -7.337773e+002
      vertex  -4.693030e+001 8.937234e+001 -7.398029e+002
    endloop
  endfacet
  facet normal -7.304613e-001 2.787162e-001 6.234931e-001
    outer loop
      vertex  -6.202185e+001 7.373603e+001 -7.453579e+002
      vertex  -7.299406e+001 6.238897e+001 -7.531401e+002
      vertex  -5.668092e+001 6.182763e+001 -7.337773e+002
    endloop
  endfacet
  facet normal -5.367883e-001 3.572275e-001 7.643604e-001
    outer loop
      vertex  -4.693030e+001 8.937234e+001 -7.398029e+002
      vertex  -5.668092e+001 6.182763e+001 -7.337773e+002
      vertex  -4.699438e+001 7.678027e+001 -7.339630e+002
    endloop
  endfacet
  facet normal 5.938005e-001 2.659048e-001 7.594049e-001
    outer loop
      vertex  4.751907e+001 6.478523e+001 -7.426158e+002
      vertex  3.518989e+001 7.522681e+001 -7.366313e+002
      vertex  2.950335e+001 6.168345e+001 -7.274427e+002
    endloop
  endfacet
  facet normal 1.776162e-001 3.868803e-001 9.048625e-001
    outer loop
      vertex  1.165907e+001 5.539014e+001 -7.161149e+002
      vertex  1.465022e+001 8.117158e+001 -7.277251e+002
      vertex  5.152062e-001 6.048343e+001 -7.161052e+002
    endloop
  endfacet
  facet normal -1.259209e-001 2.287081e-001 9.653168e-001
    outer loop
      vertex  5.152062e-001 6.048343e+001 -7.161052e+002
      vertex  -1.435467e+001 7.069649e+001 -7.204646e+002
      vertex  -2.945704e+001 6.872858e+001 -7.219684e+002
    endloop
  endfacet
  facet normal -3.720613e-001 4.215429e-001 8.269655e-001
    outer loop
      vertex  -2.945704e+001 6.872858e+001 -7.219684e+002
      vertex  -4.699438e+001 7.678027e+001 -7.339630e+002
      vertex  -3.761562e+001 5.631305e+001 -7.193102e+002
    endloop
  endfacet
  facet normal 4.193629e-001 3.318680e-001 8.449842e-001
    outer loop
      vertex  2.950335e+001 6.168345e+001 -7.274427e+002
      vertex  1.465022e+001 8.117158e+001 -7.277251e+002
      vertex  1.165907e+001 5.539014e+001 -7.161149e+002
    endloop
  endfacet
  facet normal -1.105239e-001 2.769840e-001 9.544969e-001
    outer loop
      vertex  -2.945704e+001 6.872858e+001 -7.219684e+002
      vertex  -3.761562e+001 5.631305e+001 -7.193102e+002
      vertex  5.152062e-001 6.048343e+001 -7.161052e+002
    endloop
  endfacet
  facet normal 8.433757e-001 2.638098e-001 4.681043e-001
    outer loop
      vertex  5.529857e+001 7.237940e+001 -7.545247e+002
      vertex  6.158458e+001 5.902609e+001 -7.583246e+002
      vertex  5.958777e+001 7.890724e+001 -7.659314e+002
    endloop
  endfacet
  facet normal -5.052580e-001 3.371742e-001 7.943726e-001
    outer loop
      vertex  -3.761562e+001 5.631305e+001 -7.193102e+002
      vertex  -4.699438e+001 7.678027e+001 -7.339630e+002
      vertex  -5.668092e+001 6.182763e+001 -7.337773e+002
    endloop
  endfacet
  facet normal 6.125381e-001 1.924901e-001 7.666450e-001
    outer loop
      vertex  2.950335e+001 6.168345e+001 -7.274427e+002
      vertex  4.211755e+001 5.143600e+001 -7.349483e+002
      vertex  4.751907e+001 6.478523e+001 -7.426158e+002
    endloop
  endfacet
  facet normal 7.648588e-001 1.844102e-001 6.172388e-001
    outer loop
      vertex  6.158458e+001 5.902609e+001 -7.583246e+002
      vertex  5.529857e+001 7.237940e+001 -7.545247e+002
      vertex  4.751907e+001 6.478523e+001 -7.426158e+002
    endloop
  endfacet
  facet normal 3.198667e-001 5.193752e-001 7.924233e-001
    outer loop
      vertex  2.950335e+001 6.168345e+001 -7.274427e+002
      vertex  1.165907e+001 5.539014e+001 -7.161149e+002
      vertex  2.487402e+001 5.289276e+001 -7.198124e+002
    endloop
  endfacet
  facet normal -4.599718e-001 4.372206e-001 7.728286e-001
    outer loop
      vertex  -5.668092e+001 6.182763e+001 -7.337773e+002
      vertex  -5.343680e+001 5.290635e+001 -7.267994e+002
      vertex  -3.761562e+001 5.631305e+001 -7.193102e+002
    endloop
  endfacet
  facet normal -9.720983e-002 1.305260e-001 9.866678e-001
    outer loop
      vertex  -3.761562e+001 5.631305e+001 -7.193102e+002
      vertex  -9.041125e+000 4.666669e+001 -7.152189e+002
      vertex  5.152062e-001 6.048343e+001 -7.161052e+002
    endloop
  endfacet
  facet normal -6.341116e-001 3.199984e-001 7.039201e-001
    outer loop
      vertex  -5.668092e+001 6.182763e+001 -7.337773e+002
      vertex  -6.476467e+001 4.907461e+001 -7.352620e+002
      vertex  -5.343680e+001 5.290635e+001 -7.267994e+002
    endloop
  endfacet
  facet normal 2.290924e-002 4.820962e-002 9.985744e-001
    outer loop
      vertex  -9.041125e+000 4.666669e+001 -7.152189e+002
      vertex  1.165907e+001 5.539014e+001 -7.161149e+002
      vertex  5.152062e-001 6.048343e+001 -7.161052e+002
    endloop
  endfacet
  facet normal -7.494200e-001 1.817687e-001 6.366552e-001
    outer loop
      vertex  -6.721153e+001 5.432809e+001 -7.440320e+002
      vertex  -5.668092e+001 6.182763e+001 -7.337773e+002
      vertex  -7.299406e+001 6.238897e+001 -7.531401e+002
    endloop
  endfacet
  facet normal -7.680448e-001 4.317840e-001 4.729373e-001
    outer loop
      vertex  -5.668092e+001 6.182763e+001 -7.337773e+002
      vertex  -6.721153e+001 5.432809e+001 -7.440320e+002
      vertex  -6.476467e+001 4.907461e+001 -7.352620e+002
    endloop
  endfacet
  facet normal -1.527777e-001 -3.364488e-002 9.876877e-001
    outer loop
      vertex  -2.464855e+001 4.673495e+001 -7.176307e+002
      vertex  -9.041125e+000 4.666669e+001 -7.152189e+002
      vertex  -3.761562e+001 5.631305e+001 -7.193102e+002
    endloop
  endfacet
  facet normal -8.665668e-001 6.732805e-002 4.944987e-001
    outer loop
      vertex  -7.672408e+001 3.898523e+001 -7.564902e+002
      vertex  -7.299406e+001 6.238897e+001 -7.531401e+002
      vertex  -8.098720e+001 6.743186e+001 -7.678340e+002
    endloop
  endfacet
  facet normal 5.473157e-001 3.653512e-001 7.529702e-001
    outer loop
      vertex  2.950335e+001 6.168345e+001 -7.274427e+002
      vertex  2.487402e+001 5.289276e+001 -7.198124e+002
      vertex  3.779817e+001 4.663829e+001 -7.261719e+002
    endloop
  endfacet
  facet normal -8.225569e-001 5.001046e-002 5.664795e-001
    outer loop
      vertex  -7.672408e+001 3.898523e+001 -7.564902e+002
      vertex  -6.721153e+001 5.432809e+001 -7.440320e+002
      vertex  -7.299406e+001 6.238897e+001 -7.531401e+002
    endloop
  endfacet
  facet normal 6.936178e-001 4.311533e-001 5.770627e-001
    outer loop
      vertex  3.779817e+001 4.663829e+001 -7.261719e+002
      vertex  4.211755e+001 5.143600e+001 -7.349483e+002
      vertex  2.950335e+001 6.168345e+001 -7.274427e+002
    endloop
  endfacet
  facet normal -9.056574e-001 3.285235e-002 4.227358e-001
    outer loop
      vertex  -8.098720e+001 6.743186e+001 -7.678340e+002
      vertex  -8.319840e+001 4.775901e+001 -7.710424e+002
      vertex  -7.672408e+001 3.898523e+001 -7.564902e+002
    endloop
  endfacet
  facet normal -5.635717e-001 -1.341060e-001 8.151088e-001
    outer loop
      vertex  -5.519500e+001 4.150654e+001 -7.298906e+002
      vertex  -5.343680e+001 5.290635e+001 -7.267994e+002
      vertex  -6.476467e+001 4.907461e+001 -7.352620e+002
    endloop
  endfacet
  facet normal -3.489096e-001 -3.177691e-001 8.816375e-001
    outer loop
      vertex  -5.343680e+001 5.290635e+001 -7.267994e+002
      vertex  -2.464855e+001 4.673495e+001 -7.176307e+002
      vertex  -3.761562e+001 5.631305e+001 -7.193102e+002
    endloop
  endfacet
  facet normal 2.266594e-001 -2.090262e-001 9.512799e-001
    outer loop
      vertex  2.487402e+001 5.289276e+001 -7.198124e+002
      vertex  1.165907e+001 5.539014e+001 -7.161149e+002
      vertex  1.617429e+001 4.614297e+001 -7.192227e+002
    endloop
  endfacet
  facet normal 4.512050e-001 2.532294e-002 8.920611e-001
    outer loop
      vertex  3.096522e+001 4.241096e+001 -7.225958e+002
      vertex  3.779817e+001 4.663829e+001 -7.261719e+002
      vertex  2.487402e+001 5.289276e+001 -7.198124e+002
    endloop
  endfacet
  facet normal 7.555922e-001 6.844437e-002 6.514567e-001
    outer loop
      vertex  6.158458e+001 5.902609e+001 -7.583246e+002
      vertex  4.751907e+001 6.478523e+001 -7.426158e+002
      vertex  4.211755e+001 5.143600e+001 -7.349483e+002
    endloop
  endfacet
  facet normal -8.892767e-001 2.306581e-001 3.949477e-001
    outer loop
      vertex  -7.672408e+001 3.898523e+001 -7.564902e+002
      vertex  -6.832062e+001 4.268534e+001 -7.397296e+002
      vertex  -6.721153e+001 5.432809e+001 -7.440320e+002
    endloop
  endfacet
  facet normal 1.833114e-001 -1.514042e-001 9.713258e-001
    outer loop
      vertex  1.617429e+001 4.614297e+001 -7.192227e+002
      vertex  3.096522e+001 4.241096e+001 -7.225958e+002
      vertex  2.487402e+001 5.289276e+001 -7.198124e+002
    endloop
  endfacet
  facet normal -8.940042e-001 2.277496e-001 3.858581e-001
    outer loop
      vertex  -6.832062e+001 4.268534e+001 -7.397296e+002
      vertex  -6.476467e+001 4.907461e+001 -7.352620e+002
      vertex  -6.721153e+001 5.432809e+001 -7.440320e+002
    endloop
  endfacet
  facet normal -3.423672e-001 -2.525661e-001 9.049835e-001
    outer loop
      vertex  -5.343680e+001 5.290635e+001 -7.267994e+002
      vertex  -4.371082e+001 4.266681e+001 -7.259776e+002
      vertex  -2.464855e+001 4.673495e+001 -7.176307e+002
    endloop
  endfacet
  facet normal -2.967267e-001 -2.070262e-001 9.322518e-001
    outer loop
      vertex  -4.371082e+001 4.266681e+001 -7.259776e+002
      vertex  -5.343680e+001 5.290635e+001 -7.267994e+002
      vertex  -5.519500e+001 4.150654e+001 -7.298906e+002
    endloop
  endfacet
  facet normal 7.735679e-001 -3.534453e-002 6.327270e-001
    outer loop
      vertex  4.211755e+001 5.143600e+001 -7.349483e+002
      vertex  6.064597e+001 4.402622e+001 -7.580150e+002
      vertex  6.158458e+001 5.902609e+001 -7.583246e+002
    endloop
  endfacet
  facet normal 8.393631e-001 1.815635e-001 5.123516e-001
    outer loop
      vertex  4.923237e+001 3.656508e+001 -7.413344e+002
      vertex  4.211755e+001 5.143600e+001 -7.349483e+002
      vertex  3.779817e+001 4.663829e+001 -7.261719e+002
    endloop
  endfacet
  facet normal -2.720573e-001 -4.597096e-001 8.453709e-001
    outer loop
      vertex  -2.489001e+001 3.520388e+001 -7.239790e+002
      vertex  -2.464855e+001 4.673495e+001 -7.176307e+002
      vertex  -4.371082e+001 4.266681e+001 -7.259776e+002
    endloop
  endfacet
  facet normal -1.447960e-001 2.924161e-001 9.452655e-001
    outer loop
      vertex  -9.041125e+000 4.666669e+001 -7.152189e+002
      vertex  -2.464855e+001 4.673495e+001 -7.176307e+002
      vertex  -1.515404e+001 3.726195e+001 -7.132459e+002
    endloop
  endfacet
  facet normal 4.214146e-002 -2.997319e-001 9.530923e-001
    outer loop
      vertex  1.165907e+001 5.539014e+001 -7.161149e+002
      vertex  -5.173244e+000 3.307519e+001 -7.223884e+002
      vertex  1.617429e+001 4.614297e+001 -7.192227e+002
    endloop
  endfacet
  facet normal -5.985846e-001 -2.078159e-001 7.736337e-001
    outer loop
      vertex  -6.832062e+001 4.268534e+001 -7.397296e+002
      vertex  -5.519500e+001 4.150654e+001 -7.298906e+002
      vertex  -6.476467e+001 4.907461e+001 -7.352620e+002
    endloop
  endfacet
  facet normal 2.106105e-001 -4.085404e-001 8.881092e-001
    outer loop
      vertex  1.165907e+001 5.539014e+001 -7.161149e+002
      vertex  -9.041125e+000 4.666669e+001 -7.152189e+002
      vertex  -5.173244e+000 3.307519e+001 -7.223884e+002
    endloop
  endfacet
  facet normal 3.316996e-001 -1.772681e-002 9.432185e-001
    outer loop
      vertex  -1.515404e+001 3.726195e+001 -7.132459e+002
      vertex  -8.557634e+000 3.676394e+001 -7.155750e+002
      vertex  -9.041125e+000 4.666669e+001 -7.152189e+002
    endloop
  endfacet
  facet normal 2.729025e-001 2.394173e-001 9.317744e-001
    outer loop
      vertex  1.741611e+001 3.638937e+001 -7.170802e+002
      vertex  3.096522e+001 4.241096e+001 -7.225958e+002
      vertex  1.617429e+001 4.614297e+001 -7.192227e+002
    endloop
  endfacet
  facet normal -2.679487e-001 1.703654e-001 9.482505e-001
    outer loop
      vertex  -2.464855e+001 4.673495e+001 -7.176307e+002
      vertex  -1.974814e+001 3.665212e+001 -7.144345e+002
      vertex  -1.515404e+001 3.726195e+001 -7.132459e+002
    endloop
  endfacet
  facet normal 3.221754e-001 1.335327e-001 9.372150e-001
    outer loop
      vertex  1.741611e+001 3.638937e+001 -7.170802e+002
      vertex  2.857148e+001 3.033352e+001 -7.200521e+002
      vertex  3.096522e+001 4.241096e+001 -7.225958e+002
    endloop
  endfacet
  facet normal 7.926132e-001 1.227417e-001 5.972426e-001
    outer loop
      vertex  4.211755e+001 5.143600e+001 -7.349483e+002
      vertex  4.923237e+001 3.656508e+001 -7.413344e+002
      vertex  6.064597e+001 4.402622e+001 -7.580150e+002
    endloop
  endfacet
  facet normal 9.012864e-001 2.845761e-002 4.322880e-001
    outer loop
      vertex  -8.557634e+000 3.676394e+001 -7.155750e+002
      vertex  -5.173244e+000 3.307519e+001 -7.223884e+002
      vertex  -9.041125e+000 4.666669e+001 -7.152189e+002
    endloop
  endfacet
  facet normal -3.291936e-001 4.391299e-001 8.359404e-001
    outer loop
      vertex  -5.519500e+001 4.150654e+001 -7.298906e+002
      vertex  -4.826854e+001 3.200857e+001 -7.221735e+002
      vertex  -4.371082e+001 4.266681e+001 -7.259776e+002
    endloop
  endfacet
  facet normal -2.497080e-001 1.773106e-001 9.519489e-001
    outer loop
      vertex  1.617429e+001 4.614297e+001 -7.192227e+002
      vertex  -5.173244e+000 3.307519e+001 -7.223884e+002
      vertex  1.741611e+001 3.638937e+001 -7.170802e+002
    endloop
  endfacet
  facet normal -5.948808e-001 6.401724e-002 8.012607e-001
    outer loop
      vertex  -5.519500e+001 4.150654e+001 -7.298906e+002
      vertex  -6.832062e+001 4.268534e+001 -7.397296e+002
      vertex  -5.507262e+001 3.178822e+001 -7.290233e+002
    endloop
  endfacet
  facet normal -8.356735e-001 -2.513482e-001 4.883380e-001
    outer loop
      vertex  -1.974814e+001 3.665212e+001 -7.144345e+002
      vertex  -2.464855e+001 4.673495e+001 -7.176307e+002
      vertex  -2.489001e+001 3.520388e+001 -7.239790e+002
    endloop
  endfacet
  facet normal 5.422541e-001 -1.827170e-001 8.201066e-001
    outer loop
      vertex  3.096522e+001 4.241096e+001 -7.225958e+002
      vertex  3.297256e+001 2.730911e+001 -7.272877e+002
      vertex  3.779817e+001 4.663829e+001 -7.261719e+002
    endloop
  endfacet
  facet normal 8.285906e-001 1.422866e-001 5.414723e-001
    outer loop
      vertex  5.693780e+001 1.982611e+001 -7.459813e+002
      vertex  6.493915e+001 3.639078e+001 -7.625782e+002
      vertex  6.064597e+001 4.402622e+001 -7.580150e+002
    endloop
  endfacet
  facet normal -1.427312e-001 -9.614713e-002 9.850804e-001
    outer loop
      vertex  -4.371082e+001 4.266681e+001 -7.259776e+002
      vertex  -3.359335e+001 2.883298e+001 -7.258619e+002
      vertex  -2.489001e+001 3.520388e+001 -7.239790e+002
    endloop
  endfacet
  facet normal 7.704103e-001 1.852918e-001 6.100287e-001
    outer loop
      vertex  4.923237e+001 3.656508e+001 -7.413344e+002
      vertex  5.693780e+001 1.982611e+001 -7.459813e+002
      vertex  6.064597e+001 4.402622e+001 -7.580150e+002
    endloop
  endfacet
  facet normal -7.093046e-001 5.379339e-002 7.028465e-001
    outer loop
      vertex  -5.507262e+001 3.178822e+001 -7.290233e+002
      vertex  -4.826854e+001 3.200857e+001 -7.221735e+002
      vertex  -5.519500e+001 4.150654e+001 -7.298906e+002
    endloop
  endfacet
  facet normal 7.299303e-001 -1.685379e-001 6.624174e-001
    outer loop
      vertex  3.779817e+001 4.663829e+001 -7.261719e+002
      vertex  4.093550e+001 2.682352e+001 -7.346704e+002
      vertex  4.923237e+001 3.656508e+001 -7.413344e+002
    endloop
  endfacet
  facet normal 2.813496e-001 2.135929e-001 9.355322e-001
    outer loop
      vertex  -4.371082e+001 4.266681e+001 -7.259776e+002
      vertex  -4.826854e+001 3.200857e+001 -7.221735e+002
      vertex  -3.359335e+001 2.883298e+001 -7.258619e+002
    endloop
  endfacet
  facet normal 6.584882e-001 -2.061760e-001 7.237988e-001
    outer loop
      vertex  3.297256e+001 2.730911e+001 -7.272877e+002
      vertex  4.093550e+001 2.682352e+001 -7.346704e+002
      vertex  3.779817e+001 4.663829e+001 -7.261719e+002
    endloop
  endfacet
  facet normal 5.092523e-001 6.778640e-001 5.302478e-001
    outer loop
      vertex  1.741611e+001 3.638937e+001 -7.170802e+002
      vertex  1.919686e+001 3.223224e+001 -7.134760e+002
      vertex  2.857148e+001 3.033352e+001 -7.200521e+002
    endloop
  endfacet
  facet normal -7.336581e-001 -2.865938e-001 6.161248e-001
    outer loop
      vertex  -6.775452e+001 2.627760e+001 -7.466877e+002
      vertex  -5.507262e+001 3.178822e+001 -7.290233e+002
      vertex  -6.832062e+001 4.268534e+001 -7.397296e+002
    endloop
  endfacet
  facet normal -8.482794e-001 -2.312832e-001 4.763720e-001
    outer loop
      vertex  -7.672408e+001 3.898523e+001 -7.564902e+002
      vertex  -6.775452e+001 2.627760e+001 -7.466877e+002
      vertex  -6.832062e+001 4.268534e+001 -7.397296e+002
    endloop
  endfacet
  facet normal 2.660441e-001 7.618653e-001 5.905775e-001
    outer loop
      vertex  -9.709029e+000 2.689832e+001 -7.023293e+002
      vertex  -8.557634e+000 3.676394e+001 -7.155750e+002
      vertex  -1.515404e+001 3.726195e+001 -7.132459e+002
    endloop
  endfacet
  facet normal -5.207165e-001 4.209094e-001 7.427582e-001
    outer loop
      vertex  1.741611e+001 3.638937e+001 -7.170802e+002
      vertex  5.718341e+000 2.959269e+001 -7.214294e+002
      vertex  1.919686e+001 3.223224e+001 -7.134760e+002
    endloop
  endfacet
  facet normal -2.184572e-001 1.004717e-002 9.757948e-001
    outer loop
      vertex  -3.359335e+001 2.883298e+001 -7.258619e+002
      vertex  -2.796237e+001 2.332241e+001 -7.245445e+002
      vertex  -2.489001e+001 3.520388e+001 -7.239790e+002
    endloop
  endfacet
  facet normal 8.428659e-001 -5.429898e-002 5.353771e-001
    outer loop
      vertex  3.096522e+001 4.241096e+001 -7.225958e+002
      vertex  2.857148e+001 3.033352e+001 -7.200521e+002
      vertex  3.297256e+001 2.730911e+001 -7.272877e+002
    endloop
  endfacet
  facet normal -1.771961e-001 -2.957088e-001 9.387001e-001
    outer loop
      vertex  -5.173244e+000 3.307519e+001 -7.223884e+002
      vertex  5.718341e+000 2.959269e+001 -7.214294e+002
      vertex  1.741611e+001 3.638937e+001 -7.170802e+002
    endloop
  endfacet
  facet normal 1.977896e-001 -8.299519e-001 5.215929e-001
    outer loop
      vertex  2.857148e+001 3.033352e+001 -7.200521e+002
      vertex  1.919686e+001 3.223224e+001 -7.134760e+002
      vertex  2.283313e+001 2.737807e+001 -7.225788e+002
    endloop
  endfacet
  facet normal -8.988278e-001 5.744058e-002 4.345219e-001
    outer loop
      vertex  -7.912751e+001 1.947476e+001 -7.588826e+002
      vertex  -7.672408e+001 3.898523e+001 -7.564902e+002
      vertex  -8.319840e+001 4.775901e+001 -7.710424e+002
    endloop
  endfacet
  facet normal 9.103559e-001 2.900489e-001 2.951675e-001
    outer loop
      vertex  -9.709029e+000 2.689832e+001 -7.023293e+002
      vertex  -5.173244e+000 3.307519e+001 -7.223884e+002
      vertex  -8.557634e+000 3.676394e+001 -7.155750e+002
    endloop
  endfacet
  facet normal -2.576407e-001 7.474480e-001 6.123257e-001
    outer loop
      vertex  -2.076531e+001 2.568957e+001 -7.014808e+002
      vertex  -1.515404e+001 3.726195e+001 -7.132459e+002
      vertex  -1.974814e+001 3.665212e+001 -7.144345e+002
    endloop
  endfacet
  facet normal 2.205753e-001 -8.449004e-001 4.873293e-001
    outer loop
      vertex  2.283313e+001 2.737807e+001 -7.225788e+002
      vertex  3.297256e+001 2.730911e+001 -7.272877e+002
      vertex  2.857148e+001 3.033352e+001 -7.200521e+002
    endloop
  endfacet
  facet normal -7.332360e-001 6.947828e-003 6.799388e-001
    outer loop
      vertex  -7.912751e+001 1.947476e+001 -7.588826e+002
      vertex  -6.775452e+001 2.627760e+001 -7.466877e+002
      vertex  -7.672408e+001 3.898523e+001 -7.564902e+002
    endloop
  endfacet
  facet normal -1.332503e-001 7.375969e-001 6.619631e-001
    outer loop
      vertex  -1.515404e+001 3.726195e+001 -7.132459e+002
      vertex  -2.076531e+001 2.568957e+001 -7.014808e+002
      vertex  -1.686058e+001 1.669597e+001 -6.906736e+002
    endloop
  endfacet
  facet normal -8.469208e-002 9.477023e-003 9.963621e-001
    outer loop
      vertex  -5.173244e+000 3.307519e+001 -7.223884e+002
      vertex  2.284289e+000 2.425079e+001 -7.216705e+002
      vertex  5.718341e+000 2.959269e+001 -7.214294e+002
    endloop
  endfacet
  facet normal 5.904897e-001 4.817483e-002 8.056060e-001
    outer loop
      vertex  4.093550e+001 2.682352e+001 -7.346704e+002
      vertex  5.693780e+001 1.982611e+001 -7.459813e+002
      vertex  4.923237e+001 3.656508e+001 -7.413344e+002
    endloop
  endfacet
  facet normal 8.762193e-001 5.629829e-002 4.786128e-001
    outer loop
      vertex  6.386222e+001 8.109231e+000 -7.572799e+002
      vertex  6.493915e+001 3.639078e+001 -7.625782e+002
      vertex  5.693780e+001 1.982611e+001 -7.459813e+002
    endloop
  endfacet
  facet normal 4.901929e-002 7.364576e-001 6.747053e-001
    outer loop
      vertex  -9.709029e+000 2.689832e+001 -7.023293e+002
      vertex  -1.515404e+001 3.726195e+001 -7.132459e+002
      vertex  -1.686058e+001 1.669597e+001 -6.906736e+002
    endloop
  endfacet
  facet normal -7.847445e-001 -1.339305e-001 6.051765e-001
    outer loop
      vertex  -5.507262e+001 3.178822e+001 -7.290233e+002
      vertex  -6.775452e+001 2.627760e+001 -7.466877e+002
      vertex  -5.743111e+001 2.515215e+001 -7.335502e+002
    endloop
  endfacet
  facet normal 6.641886e-001 -1.713700e-001 7.276577e-001
    outer loop
      vertex  3.297256e+001 2.730911e+001 -7.272877e+002
      vertex  3.491203e+001 2.071515e+001 -7.306109e+002
      vertex  4.093550e+001 2.682352e+001 -7.346704e+002
    endloop
  endfacet
  facet normal 6.364320e-001 3.238812e-001 7.000395e-001
    outer loop
      vertex  4.262088e+001 1.400926e+001 -7.302740e+002
      vertex  5.693780e+001 1.982611e+001 -7.459813e+002
      vertex  4.093550e+001 2.682352e+001 -7.346704e+002
    endloop
  endfacet
  facet normal -7.841234e-001 -1.429579e-001 6.039151e-001
    outer loop
      vertex  -5.743111e+001 2.515215e+001 -7.335502e+002
      vertex  -6.775452e+001 2.627760e+001 -7.466877e+002
      vertex  -6.138000e+001 1.707376e+001 -7.405897e+002
    endloop
  endfacet
  facet normal -5.018342e-001 -3.585992e-001 7.871270e-001
    outer loop
      vertex  -5.507262e+001 3.178822e+001 -7.290233e+002
      vertex  -5.743111e+001 2.515215e+001 -7.335502e+002
      vertex  -4.274670e+001 2.102189e+001 -7.260698e+002
    endloop
  endfacet
  facet normal -1.194518e-001 1.137286e-001 9.863048e-001
    outer loop
      vertex  -2.796237e+001 2.332241e+001 -7.245445e+002
      vertex  -3.359335e+001 2.883298e+001 -7.258619e+002
      vertex  -4.274670e+001 2.102189e+001 -7.260698e+002
    endloop
  endfacet
  facet normal 4.202544e-001 8.167996e-002 9.037226e-001
    outer loop
      vertex  3.297256e+001 2.730911e+001 -7.272877e+002
      vertex  2.283313e+001 2.737807e+001 -7.225788e+002
      vertex  2.572632e+001 1.226130e+001 -7.225579e+002
    endloop
  endfacet
  facet normal 7.193956e-001 -1.320844e-001 6.819265e-001
    outer loop
      vertex  2.572632e+001 1.226130e+001 -7.225579e+002
      vertex  3.491203e+001 2.071515e+001 -7.306109e+002
      vertex  3.297256e+001 2.730911e+001 -7.272877e+002
    endloop
  endfacet
  facet normal -7.737290e-001 2.501211e-001 5.820506e-001
    outer loop
      vertex  -7.912751e+001 1.947476e+001 -7.588826e+002
      vertex  -6.883879e+001 1.067228e+001 -7.414230e+002
      vertex  -6.775452e+001 2.627760e+001 -7.466877e+002
    endloop
  endfacet
  facet normal -4.692743e-001 5.879632e-001 6.588482e-001
    outer loop
      vertex  -2.114303e+001 1.381331e+001 -6.911514e+002
      vertex  -1.686058e+001 1.669597e+001 -6.906736e+002
      vertex  -2.076531e+001 2.568957e+001 -7.014808e+002
    endloop
  endfacet
  facet normal -2.083140e-002 4.026583e-001 9.151133e-001
    outer loop
      vertex  1.405163e+001 1.903444e+001 -7.191074e+002
      vertex  2.283313e+001 2.737807e+001 -7.225788e+002
      vertex  2.284289e+000 2.425079e+001 -7.216705e+002
    endloop
  endfacet
  facet normal -7.723468e-001 -1.584741e-001 6.151150e-001
    outer loop
      vertex  -5.054214e+001 1.354259e+001 -7.278913e+002
      vertex  -5.743111e+001 2.515215e+001 -7.335502e+002
      vertex  -6.138000e+001 1.707376e+001 -7.405897e+002
    endloop
  endfacet
  facet normal 3.156571e-001 6.172076e-002 9.468638e-001
    outer loop
      vertex  1.405163e+001 1.903444e+001 -7.191074e+002
      vertex  2.572632e+001 1.226130e+001 -7.225579e+002
      vertex  2.283313e+001 2.737807e+001 -7.225788e+002
    endloop
  endfacet
  facet normal 2.595992e-001 3.437667e-001 9.024592e-001
    outer loop
      vertex  4.093550e+001 2.682352e+001 -7.346704e+002
      vertex  3.491203e+001 2.071515e+001 -7.306109e+002
      vertex  4.262088e+001 1.400926e+001 -7.302740e+002
    endloop
  endfacet
  facet normal -9.289759e-001 2.592888e-001 2.641461e-001
    outer loop
      vertex  -2.076531e+001 2.568957e+001 -7.014808e+002
      vertex  -2.422179e+001 1.640729e+001 -7.045253e+002
      vertex  -2.114303e+001 1.381331e+001 -6.911514e+002
    endloop
  endfacet
  facet normal -3.998617e-001 1.988544e-001 8.947445e-001
    outer loop
      vertex  -5.743111e+001 2.515215e+001 -7.335502e+002
      vertex  -5.054214e+001 1.354259e+001 -7.278913e+002
      vertex  -4.274670e+001 2.102189e+001 -7.260698e+002
    endloop
  endfacet
  facet normal -9.244457e-001 3.035819e-002 3.801034e-001
    outer loop
      vertex  -8.160000e+001 7.460692e+000 -7.639364e+002
      vertex  -7.912751e+001 1.947476e+001 -7.588826e+002
      vertex  -8.319840e+001 4.775901e+001 -7.710424e+002
    endloop
  endfacet
  facet normal -3.668939e-002 3.728142e-001 9.271803e-001
    outer loop
      vertex  1.405163e+001 1.903444e+001 -7.191074e+002
      vertex  2.284289e+000 2.425079e+001 -7.216705e+002
      vertex  4.075104e+000 1.543056e+001 -7.180531e+002
    endloop
  endfacet
  facet normal -3.718555e-001 3.198323e-001 8.714532e-001
    outer loop
      vertex  -6.138000e+001 1.707376e+001 -7.405897e+002
      vertex  -6.775452e+001 2.627760e+001 -7.466877e+002
      vertex  -6.883879e+001 1.067228e+001 -7.414230e+002
    endloop
  endfacet
  facet normal -7.667316e-002 -1.597743e-001 9.841714e-001
    outer loop
      vertex  -5.054214e+001 1.354259e+001 -7.278913e+002
      vertex  -2.796237e+001 2.332241e+001 -7.245445e+002
      vertex  -4.274670e+001 2.102189e+001 -7.260698e+002
    endloop
  endfacet
  facet normal 7.557940e-001 3.630746e-001 5.449332e-001
    outer loop
      vertex  4.075104e+000 1.543056e+001 -7.180531e+002
      vertex  -4.905540e+000 2.234164e+001 -7.102021e+002
      vertex  5.661678e+000 1.047570e+000 -7.106706e+002
    endloop
  endfacet
  facet normal 6.316497e-001 3.342219e-001 6.995100e-001
    outer loop
      vertex  4.879501e+001 4.010064e+000 -7.310716e+002
      vertex  5.693780e+001 1.982611e+001 -7.459813e+002
      vertex  4.262088e+001 1.400926e+001 -7.302740e+002
    endloop
  endfacet
  facet normal 1.723949e-001 -1.947531e-001 9.655834e-001
    outer loop
      vertex  2.572632e+001 1.226130e+001 -7.225579e+002
      vertex  1.405163e+001 1.903444e+001 -7.191074e+002
      vertex  4.075104e+000 1.543056e+001 -7.180531e+002
    endloop
  endfacet
  facet normal -7.694618e-001 2.587986e-001 5.839108e-001
    outer loop
      vertex  -6.883879e+001 1.067228e+001 -7.414230e+002
      vertex  -7.912751e+001 1.947476e+001 -7.588826e+002
      vertex  -7.291166e+001 -3.313219e+000 -7.405916e+002
    endloop
  endfacet
  facet normal -9.018167e-001 3.352610e-001 2.726293e-001
    outer loop
      vertex  -2.422179e+001 1.640729e+001 -7.045253e+002
      vertex  -3.244764e+001 1.050736e+000 -7.128508e+002
      vertex  -2.114303e+001 1.381331e+001 -6.911514e+002
    endloop
  endfacet
  facet normal 7.684938e-001 3.698788e-001 5.221178e-001
    outer loop
      vertex  5.661678e+000 1.047570e+000 -7.106706e+002
      vertex  -4.905540e+000 2.234164e+001 -7.102021e+002
      vertex  -3.266725e+000 9.420598e+000 -7.034607e+002
    endloop
  endfacet
  facet normal 8.809324e-001 3.082542e-001 3.590787e-001
    outer loop
      vertex  -9.612082e+000 9.869029e+000 -6.879482e+002
      vertex  -4.905540e+000 2.234164e+001 -7.102021e+002
      vertex  -9.709029e+000 2.689832e+001 -7.023293e+002
    endloop
  endfacet
  facet normal -7.722307e-001 -1.497466e-001 6.174428e-001
    outer loop
      vertex  -4.928679e+001 8.009103e+000 -7.276633e+002
      vertex  -5.054214e+001 1.354259e+001 -7.278913e+002
      vertex  -6.138000e+001 1.707376e+001 -7.405897e+002
    endloop
  endfacet
  facet normal -3.032425e-001 4.049372e-001 8.625948e-001
    outer loop
      vertex  -2.796237e+001 2.332241e+001 -7.245445e+002
      vertex  -5.054214e+001 1.354259e+001 -7.278913e+002
      vertex  -3.268605e+001 1.521571e+001 -7.223995e+002
    endloop
  endfacet
  facet normal -4.717509e-001 4.510434e-001 7.576351e-001
    outer loop
      vertex  -4.928679e+001 8.009103e+000 -7.276633e+002
      vertex  -6.138000e+001 1.707376e+001 -7.405897e+002
      vertex  -6.883879e+001 1.067228e+001 -7.414230e+002
    endloop
  endfacet
  facet normal -2.915750e-001 -2.674498e-002 9.561740e-001
    outer loop
      vertex  -3.268605e+001 1.521571e+001 -7.223995e+002
      vertex  -5.054214e+001 1.354259e+001 -7.278913e+002
      vertex  -4.928679e+001 8.009103e+000 -7.276633e+002
    endloop
  endfacet
  facet normal 3.062950e-001 6.152087e-001 7.264307e-001
    outer loop
      vertex  -9.612082e+000 9.869029e+000 -6.879482e+002
      vertex  -9.709029e+000 2.689832e+001 -7.023293e+002
      vertex  -1.686058e+001 1.669597e+001 -6.906736e+002
    endloop
  endfacet
  facet normal 8.867134e-001 2.972209e-001 3.541175e-001
    outer loop
      vertex  -3.266725e+000 9.420598e+000 -7.034607e+002
      vertex  -4.905540e+000 2.234164e+001 -7.102021e+002
      vertex  -9.612082e+000 9.869029e+000 -6.879482e+002
    endloop
  endfacet
  facet normal 2.383654e-001 3.302485e-001 9.133006e-001
    outer loop
      vertex  2.572632e+001 1.226130e+001 -7.225579e+002
      vertex  4.075104e+000 1.543056e+001 -7.180531e+002
      vertex  1.435361e+001 7.065360e+000 -7.177109e+002
    endloop
  endfacet
  facet normal 7.597762e-001 5.799061e-001 2.940221e-001
    outer loop
      vertex  -3.266725e+000 9.420598e+000 -7.034607e+002
      vertex  -9.612082e+000 9.869029e+000 -6.879482e+002
      vertex  -6.116703e+000 4.991816e+000 -6.873611e+002
    endloop
  endfacet
  facet normal -8.804193e-001 2.547810e-001 3.999358e-001
    outer loop
      vertex  -3.268605e+001 1.521571e+001 -7.223995e+002
      vertex  -3.244764e+001 1.050736e+000 -7.128508e+002
      vertex  -2.422179e+001 1.640729e+001 -7.045253e+002
    endloop
  endfacet
  facet normal -4.226268e-001 5.028995e-001 7.539753e-001
    outer loop
      vertex  -2.114303e+001 1.381331e+001 -6.911514e+002
      vertex  -2.186009e+001 -7.367535e-001 -6.818484e+002
      vertex  -1.686058e+001 1.669597e+001 -6.906736e+002
    endloop
  endfacet
  facet normal -4.823104e-001 4.228542e-001 7.671838e-001
    outer loop
      vertex  -4.928679e+001 8.009103e+000 -7.276633e+002
      vertex  -6.883879e+001 1.067228e+001 -7.414230e+002
      vertex  -5.253663e+001 -7.201938e+000 -7.213224e+002
    endloop
  endfacet
  facet normal 3.457951e-001 4.583808e-001 8.187264e-001
    outer loop
      vertex  5.661678e+000 1.047570e+000 -7.106706e+002
      vertex  1.435361e+001 7.065360e+000 -7.177109e+002
      vertex  4.075104e+000 1.543056e+001 -7.180531e+002
    endloop
  endfacet
  facet normal 3.377819e-001 4.303579e-001 8.370755e-001
    outer loop
      vertex  3.491203e+001 2.071515e+001 -7.306109e+002
      vertex  2.572632e+001 1.226130e+001 -7.225579e+002
      vertex  4.262088e+001 1.400926e+001 -7.302740e+002
    endloop
  endfacet
  facet normal -4.395583e-001 4.409896e-001 7.825067e-001
    outer loop
      vertex  -4.233364e+001 -6.013223e+000 -7.158550e+002
      vertex  -3.268605e+001 1.521571e+001 -7.223995e+002
      vertex  -4.928679e+001 8.009103e+000 -7.276633e+002
    endloop
  endfacet
  facet normal 1.386332e-001 4.906252e-001 8.602719e-001
    outer loop
      vertex  -9.612082e+000 9.869029e+000 -6.879482e+002
      vertex  -1.686058e+001 1.669597e+001 -6.906736e+002
      vertex  -1.246875e+001 -4.029964e+000 -6.795611e+002
    endloop
  endfacet
  facet normal 8.818790e-001 7.183300e-002 4.659716e-001
    outer loop
      vertex  6.386222e+001 8.109231e+000 -7.572799e+002
      vertex  5.693780e+001 1.982611e+001 -7.459813e+002
      vertex  5.320010e+001 -1.535821e+001 -7.334835e+002
    endloop
  endfacet
  facet normal -5.308624e-002 4.631042e-001 8.847126e-001
    outer loop
      vertex  -1.686058e+001 1.669597e+001 -6.906736e+002
      vertex  -2.186009e+001 -7.367535e-001 -6.818484e+002
      vertex  -1.246875e+001 -4.029964e+000 -6.795611e+002
    endloop
  endfacet
  facet normal 3.385576e-001 4.276349e-001 8.381570e-001
    outer loop
      vertex  1.983340e+001 -9.289736e+000 -7.091821e+002
      vertex  4.262088e+001 1.400926e+001 -7.302740e+002
      vertex  2.572632e+001 1.226130e+001 -7.225579e+002
    endloop
  endfacet
  facet normal -5.435370e-001 4.628769e-001 7.002233e-001
    outer loop
      vertex  -3.244764e+001 1.050736e+000 -7.128508e+002
      vertex  -3.268605e+001 1.521571e+001 -7.223995e+002
      vertex  -4.233364e+001 -6.013223e+000 -7.158550e+002
    endloop
  endfacet
  facet normal 1.398488e-001 4.942749e-001 8.579828e-001
    outer loop
      vertex  1.435361e+001 7.065360e+000 -7.177109e+002
      vertex  1.983340e+001 -9.289736e+000 -7.091821e+002
      vertex  2.572632e+001 1.226130e+001 -7.225579e+002
    endloop
  endfacet
  facet normal 4.248413e-001 4.021054e-001 8.110617e-001
    outer loop
      vertex  -6.116703e+000 4.991816e+000 -6.873611e+002
      vertex  -9.612082e+000 9.869029e+000 -6.879482e+002
      vertex  -1.246875e+001 -4.029964e+000 -6.795611e+002
    endloop
  endfacet
  facet normal 5.391678e-001 2.692619e-001 7.979950e-001
    outer loop
      vertex  4.262088e+001 1.400926e+001 -7.302740e+002
      vertex  2.812956e+001 -1.616971e+001 -7.102998e+002
      vertex  4.879501e+001 4.010064e+000 -7.310716e+002
    endloop
  endfacet
  facet normal -4.657220e-001 4.234250e-001 7.770548e-001
    outer loop
      vertex  -4.233364e+001 -6.013223e+000 -7.158550e+002
      vertex  -4.928679e+001 8.009103e+000 -7.276633e+002
      vertex  -5.253663e+001 -7.201938e+000 -7.213224e+002
    endloop
  endfacet
  facet normal 8.155212e-001 1.148456e-001 5.672174e-001
    outer loop
      vertex  5.320010e+001 -1.535821e+001 -7.334835e+002
      vertex  5.693780e+001 1.982611e+001 -7.459813e+002
      vertex  4.879501e+001 4.010064e+000 -7.310716e+002
    endloop
  endfacet
  facet normal 8.876361e-001 5.976626e-002 4.566511e-001
    outer loop
      vertex  5.945119e+001 -1.638018e+001 -7.455006e+002
      vertex  6.386222e+001 8.109231e+000 -7.572799e+002
      vertex  5.320010e+001 -1.535821e+001 -7.334835e+002
    endloop
  endfacet
  facet normal -9.514809e-001 6.974413e-002 2.996998e-001
    outer loop
      vertex  -8.122668e+001 -1.599583e+001 -7.572925e+002
      vertex  -7.912751e+001 1.947476e+001 -7.588826e+002
      vertex  -8.160000e+001 7.460692e+000 -7.639364e+002
    endloop
  endfacet
  facet normal -6.448661e-001 2.311110e-001 7.285158e-001
    outer loop
      vertex  -6.883879e+001 1.067228e+001 -7.414230e+002
      vertex  -7.291166e+001 -3.313219e+000 -7.405916e+002
      vertex  -5.253663e+001 -7.201938e+000 -7.213224e+002
    endloop
  endfacet
  facet normal 2.929846e-001 5.174344e-001 8.040035e-001
    outer loop
      vertex  1.983340e+001 -9.289736e+000 -7.091821e+002
      vertex  1.435361e+001 7.065360e+000 -7.177109e+002
      vertex  5.661678e+000 1.047570e+000 -7.106706e+002
    endloop
  endfacet
  facet normal 5.670121e-001 2.326841e-001 7.901616e-001
    outer loop
      vertex  3.609913e+001 -2.289908e+001 -7.140370e+002
      vertex  4.879501e+001 4.010064e+000 -7.310716e+002
      vertex  2.812956e+001 -1.616971e+001 -7.102998e+002
    endloop
  endfacet
  facet normal 7.826264e-001 -1.295418e-002 6.223569e-001
    outer loop
      vertex  -8.924413e-001 -6.633097e+000 -6.941727e+002
      vertex  -6.116703e+000 4.991816e+000 -6.873611e+002
      vertex  -1.246875e+001 -4.029964e+000 -6.795611e+002
    endloop
  endfacet
  facet normal 8.395976e-001 6.104130e-002 5.397683e-001
    outer loop
      vertex  -8.924413e-001 -6.633097e+000 -6.941727e+002
      vertex  4.143014e-001 4.139830e-002 -6.969601e+002
      vertex  -6.116703e+000 4.991816e+000 -6.873611e+002
    endloop
  endfacet
  facet normal -3.664307e-001 1.204334e-001 9.226182e-001
    outer loop
      vertex  -3.260106e+001 -1.335600e+001 -7.110311e+002
      vertex  -3.244764e+001 1.050736e+000 -7.128508e+002
      vertex  -4.233364e+001 -6.013223e+000 -7.158550e+002
    endloop
  endfacet
  facet normal 6.633143e-001 1.510264e-001 7.329428e-001
    outer loop
      vertex  4.474042e+001 -2.300010e+001 -7.218366e+002
      vertex  4.879501e+001 4.010064e+000 -7.310716e+002
      vertex  3.609913e+001 -2.289908e+001 -7.140370e+002
    endloop
  endfacet
  facet normal 4.100795e-001 3.582247e-001 8.387550e-001
    outer loop
      vertex  2.812956e+001 -1.616971e+001 -7.102998e+002
      vertex  4.262088e+001 1.400926e+001 -7.302740e+002
      vertex  1.983340e+001 -9.289736e+000 -7.091821e+002
    endloop
  endfacet
  facet normal -6.394227e-001 2.509217e-001 7.267579e-001
    outer loop
      vertex  -5.569410e+001 -2.173501e+001 -7.190827e+002
      vertex  -5.253663e+001 -7.201938e+000 -7.213224e+002
      vertex  -7.291166e+001 -3.313219e+000 -7.405916e+002
    endloop
  endfacet
  facet normal -8.628719e-001 -1.557422e-001 4.808291e-001
    outer loop
      vertex  -8.924413e-001 -6.633097e+000 -6.941727e+002
      vertex  -4.601341e+000 -7.989326e+000 -7.012678e+002
      vertex  -2.264984e+000 -1.572074e+001 -6.995793e+002
    endloop
  endfacet
  facet normal -9.558264e-001 6.937052e-002 2.856284e-001
    outer loop
      vertex  -7.824239e+001 -1.887144e+001 -7.466075e+002
      vertex  -7.912751e+001 1.947476e+001 -7.588826e+002
      vertex  -8.122668e+001 -1.599583e+001 -7.572925e+002
    endloop
  endfacet
  facet normal 7.735392e-001 9.796067e-002 6.261317e-001
    outer loop
      vertex  5.320010e+001 -1.535821e+001 -7.334835e+002
      vertex  4.879501e+001 4.010064e+000 -7.310716e+002
      vertex  4.474042e+001 -2.300010e+001 -7.218366e+002
    endloop
  endfacet
  facet normal -3.793578e-001 -5.825414e-001 7.188415e-001
    outer loop
      vertex  -2.186009e+001 -7.367535e-001 -6.818484e+002
      vertex  -1.416404e+001 -1.070369e+001 -6.858641e+002
      vertex  -1.246875e+001 -4.029964e+000 -6.795611e+002
    endloop
  endfacet
  facet normal -8.811152e-001 1.256060e-001 4.559157e-001
    outer loop
      vertex  -7.824239e+001 -1.887144e+001 -7.466075e+002
      vertex  -7.291166e+001 -3.313219e+000 -7.405916e+002
      vertex  -7.912751e+001 1.947476e+001 -7.588826e+002
    endloop
  endfacet
  facet normal 8.450728e-001 -2.250904e-001 4.849600e-001
    outer loop
      vertex  -4.601341e+000 -7.989326e+000 -7.012678e+002
      vertex  -1.416404e+001 -1.070369e+001 -6.858641e+002
      vertex  -1.146806e+001 -1.534414e+001 -6.927158e+002
    endloop
  endfacet
  facet normal 1.327578e-002 2.241683e-001 9.744600e-001
    outer loop
      vertex  1.509928e+001 -2.629593e+001 -7.045090e+002
      vertex  5.661678e+000 1.047570e+000 -7.106706e+002
      vertex  3.241335e+000 -1.143487e+001 -7.077661e+002
    endloop
  endfacet
  facet normal -7.444526e-002 -8.390366e-001 5.389578e-001
    outer loop
      vertex  -1.812519e+001 -1.543330e+001 -6.937742e+002
      vertex  -1.146806e+001 -1.534414e+001 -6.927158e+002
      vertex  -1.416404e+001 -1.070369e+001 -6.858641e+002
    endloop
  endfacet
  facet normal 7.665817e-002 2.442888e-001 9.666678e-001
    outer loop
      vertex  1.983340e+001 -9.289736e+000 -7.091821e+002
      vertex  5.661678e+000 1.047570e+000 -7.106706e+002
      vertex  1.509928e+001 -2.629593e+001 -7.045090e+002
    endloop
  endfacet
  facet normal 5.718336e-001 3.362256e-001 7.483039e-001
    outer loop
      vertex  -1.146806e+001 -1.534414e+001 -6.927158e+002
      vertex  -2.264984e+000 -1.572074e+001 -6.995793e+002
      vertex  -4.601341e+000 -7.989326e+000 -7.012678e+002
    endloop
  endfacet
  facet normal 8.508090e-001 -3.575806e-001 3.850458e-001
    outer loop
      vertex  -8.924413e-001 -6.633097e+000 -6.941727e+002
      vertex  -2.264984e+000 -1.572074e+001 -6.995793e+002
      vertex  3.241335e+000 -1.143487e+001 -7.077661e+002
    endloop
  endfacet
  facet normal -2.966354e-001 2.176939e-001 9.298477e-001
    outer loop
      vertex  -4.415717e+001 -2.560794e+001 -7.118493e+002
      vertex  -3.260106e+001 -1.335600e+001 -7.110311e+002
      vertex  -4.233364e+001 -6.013223e+000 -7.158550e+002
    endloop
  endfacet
  facet normal -4.802319e-001 2.345873e-001 8.451900e-001
    outer loop
      vertex  -5.253663e+001 -7.201938e+000 -7.213224e+002
      vertex  -5.569410e+001 -2.173501e+001 -7.190827e+002
      vertex  -4.233364e+001 -6.013223e+000 -7.158550e+002
    endloop
  endfacet
  facet normal 5.229067e-001 5.583909e-001 6.440250e-001
    outer loop
      vertex  1.509928e+001 -2.629593e+001 -7.045090e+002
      vertex  3.241335e+000 -1.143487e+001 -7.077661e+002
      vertex  -2.264984e+000 -1.572074e+001 -6.995793e+002
    endloop
  endfacet
  facet normal 2.778808e-001 1.818378e-001 9.432483e-001
    outer loop
      vertex  2.812956e+001 -1.616971e+001 -7.102998e+002
      vertex  1.983340e+001 -9.289736e+000 -7.091821e+002
      vertex  1.509928e+001 -2.629593e+001 -7.045090e+002
    endloop
  endfacet
  facet normal -4.646050e-001 2.186577e-001 8.580974e-001
    outer loop
      vertex  -4.233364e+001 -6.013223e+000 -7.158550e+002
      vertex  -5.569410e+001 -2.173501e+001 -7.190827e+002
      vertex  -4.415717e+001 -2.560794e+001 -7.118493e+002
    endloop
  endfacet
  facet normal -7.340037e-001 3.808391e-001 5.623168e-001
    outer loop
      vertex  -2.800788e+001 -2.732893e+001 -6.955721e+002
      vertex  -2.427125e+001 -1.497253e+001 -6.990632e+002
      vertex  -3.260106e+001 -1.335600e+001 -7.110311e+002
    endloop
  endfacet
  facet normal 8.144611e-001 -1.772961e-002 5.799472e-001
    outer loop
      vertex  4.893008e+001 -3.709169e+001 -7.281512e+002
      vertex  5.320010e+001 -1.535821e+001 -7.334835e+002
      vertex  4.474042e+001 -2.300010e+001 -7.218366e+002
    endloop
  endfacet
  facet normal -5.869623e-001 3.795492e-001 7.151347e-001
    outer loop
      vertex  -2.427125e+001 -1.497253e+001 -6.990632e+002
      vertex  -2.800788e+001 -2.732893e+001 -6.955721e+002
      vertex  -1.812519e+001 -1.543330e+001 -6.937742e+002
    endloop
  endfacet
  facet normal -9.627375e-001 5.541321e-003 2.703806e-001
    outer loop
      vertex  -7.824239e+001 -1.887144e+001 -7.466075e+002
      vertex  -8.122668e+001 -1.599583e+001 -7.572925e+002
      vertex  -8.226245e+001 -2.238424e+001 -7.608497e+002
    endloop
  endfacet
  facet normal -5.838258e-001 5.083976e-001 6.329923e-001
    outer loop
      vertex  -4.415717e+001 -2.560794e+001 -7.118493e+002
      vertex  -2.800788e+001 -2.732893e+001 -6.955721e+002
      vertex  -3.260106e+001 -1.335600e+001 -7.110311e+002
    endloop
  endfacet
  facet normal -8.287788e-001 6.925434e-002 5.552744e-001
    outer loop
      vertex  -7.824239e+001 -1.887144e+001 -7.466075e+002
      vertex  -7.059776e+001 -2.953027e+001 -7.338681e+002
      vertex  -7.291166e+001 -3.313219e+000 -7.405916e+002
    endloop
  endfacet
  facet normal 5.173090e-001 5.398793e-001 6.640193e-001
    outer loop
      vertex  1.509928e+001 -2.629593e+001 -7.045090e+002
      vertex  -2.264984e+000 -1.572074e+001 -6.995793e+002
      vertex  -1.146806e+001 -1.534414e+001 -6.927158e+002
    endloop
  endfacet
  facet normal 8.834906e-001 -5.958136e-002 4.646444e-001
    outer loop
      vertex  5.320010e+001 -1.535821e+001 -7.334835e+002
      vertex  4.893008e+001 -3.709169e+001 -7.281512e+002
      vertex  5.945119e+001 -1.638018e+001 -7.455006e+002
    endloop
  endfacet
  facet normal 4.896740e-001 9.881486e-002 8.662881e-001
    outer loop
      vertex  3.609913e+001 -2.289908e+001 -7.140370e+002
      vertex  2.812956e+001 -1.616971e+001 -7.102998e+002
      vertex  2.299757e+001 -4.269794e+001 -7.043729e+002
    endloop
  endfacet
  facet normal -7.282792e-001 1.092185e-001 6.765211e-001
    outer loop
      vertex  -7.291166e+001 -3.313219e+000 -7.405916e+002
      vertex  -7.059776e+001 -2.953027e+001 -7.338681e+002
      vertex  -5.569410e+001 -2.173501e+001 -7.190827e+002
    endloop
  endfacet
  facet normal -9.562226e-001 -6.370737e-002 2.856217e-001
    outer loop
      vertex  -7.824239e+001 -1.887144e+001 -7.466075e+002
      vertex  -8.226245e+001 -2.238424e+001 -7.608497e+002
      vertex  -7.764648e+001 -3.722031e+001 -7.487052e+002
    endloop
  endfacet
  facet normal 4.795777e-001 2.613518e-001 8.376756e-001
    outer loop
      vertex  1.509928e+001 -2.629593e+001 -7.045090e+002
      vertex  -1.146806e+001 -1.534414e+001 -6.927158e+002
      vertex  -8.805256e+000 -3.036818e+001 -6.895529e+002
    endloop
  endfacet
  facet normal -1.568445e-001 1.767654e-001 9.716758e-001
    outer loop
      vertex  -8.805256e+000 -3.036818e+001 -6.895529e+002
      vertex  -1.146806e+001 -1.534414e+001 -6.927158e+002
      vertex  -1.812519e+001 -1.543330e+001 -6.937742e+002
    endloop
  endfacet
  facet normal 3.001102e-001 1.523270e-001 9.416637e-001
    outer loop
      vertex  1.509928e+001 -2.629593e+001 -7.045090e+002
      vertex  2.299757e+001 -4.269794e+001 -7.043729e+002
      vertex  2.812956e+001 -1.616971e+001 -7.102998e+002
    endloop
  endfacet
  facet normal -4.431807e-001 2.375388e-001 8.643878e-001
    outer loop
      vertex  -2.800788e+001 -2.732893e+001 -6.955721e+002
      vertex  -1.721215e+001 -3.368489e+001 -6.882904e+002
      vertex  -1.812519e+001 -1.543330e+001 -6.937742e+002
    endloop
  endfacet
  facet normal -8.620466e-001 -1.269794e-002 5.066698e-001
    outer loop
      vertex  -7.177280e+001 -4.651163e+001 -7.362929e+002
      vertex  -7.059776e+001 -2.953027e+001 -7.338681e+002
      vertex  -7.824239e+001 -1.887144e+001 -7.466075e+002
    endloop
  endfacet
  facet normal -7.046084e-001 6.833569e-002 7.062982e-001
    outer loop
      vertex  -4.415717e+001 -2.560794e+001 -7.118493e+002
      vertex  -3.721893e+001 -3.495881e+001 -7.040229e+002
      vertex  -2.800788e+001 -2.732893e+001 -6.955721e+002
    endloop
  endfacet
  facet normal -7.173010e-001 5.377762e-002 6.946850e-001
    outer loop
      vertex  -5.001381e+001 -4.346843e+001 -7.115350e+002
      vertex  -5.569410e+001 -2.173501e+001 -7.190827e+002
      vertex  -7.059776e+001 -2.953027e+001 -7.338681e+002
    endloop
  endfacet
  facet normal 2.968253e-002 2.889818e-001 9.568744e-001
    outer loop
      vertex  -1.812519e+001 -1.543330e+001 -6.937742e+002
      vertex  -1.721215e+001 -3.368489e+001 -6.882904e+002
      vertex  -8.805256e+000 -3.036818e+001 -6.895529e+002
    endloop
  endfacet
  facet normal -9.216076e-001 -7.349840e-002 3.811005e-001
    outer loop
      vertex  -7.764648e+001 -3.722031e+001 -7.487052e+002
      vertex  -7.177280e+001 -4.651163e+001 -7.362929e+002
      vertex  -7.824239e+001 -1.887144e+001 -7.466075e+002
    endloop
  endfacet
  facet normal 5.190361e-001 7.900655e-002 8.510931e-001
    outer loop
      vertex  1.109911e+001 -3.502847e+001 -7.012589e+002
      vertex  1.509928e+001 -2.629593e+001 -7.045090e+002
      vertex  -8.805256e+000 -3.036818e+001 -6.895529e+002
    endloop
  endfacet
  facet normal -6.072424e-001 -1.342622e-001 7.830903e-001
    outer loop
      vertex  -1.721215e+001 -3.368489e+001 -6.882904e+002
      vertex  -2.800788e+001 -2.732893e+001 -6.955721e+002
      vertex  -3.721893e+001 -3.495881e+001 -7.040229e+002
    endloop
  endfacet
  facet normal 3.553241e-001 1.787145e-001 9.174998e-001
    outer loop
      vertex  1.109911e+001 -3.502847e+001 -7.012589e+002
      vertex  2.299757e+001 -4.269794e+001 -7.043729e+002
      vertex  1.509928e+001 -2.629593e+001 -7.045090e+002
    endloop
  endfacet
  facet normal 8.586639e-001 -6.888704e-003 5.124928e-001
    outer loop
      vertex  5.945119e+001 -1.638018e+001 -7.455006e+002
      vertex  4.893008e+001 -3.709169e+001 -7.281512e+002
      vertex  5.761144e+001 -3.740312e+001 -7.427007e+002
    endloop
  endfacet
  facet normal -5.946352e-001 2.086491e-001 7.764499e-001
    outer loop
      vertex  -4.415717e+001 -2.560794e+001 -7.118493e+002
      vertex  -5.001381e+001 -4.346843e+001 -7.115350e+002
      vertex  -3.721893e+001 -3.495881e+001 -7.040229e+002
    endloop
  endfacet
  facet normal 6.698787e-001 -1.353868e-002 7.423471e-001
    outer loop
      vertex  3.609913e+001 -2.289908e+001 -7.140370e+002
      vertex  2.870817e+001 -5.388995e+001 -7.079328e+002
      vertex  4.474042e+001 -2.300010e+001 -7.218366e+002
    endloop
  endfacet
  facet normal 4.134207e-001 -3.478883e-001 8.414612e-001
    outer loop
      vertex  -8.805256e+000 -3.036818e+001 -6.895529e+002
      vertex  -3.012758e+000 -3.527131e+001 -6.944259e+002
      vertex  1.109911e+001 -3.502847e+001 -7.012589e+002
    endloop
  endfacet
  facet normal 9.499326e-001 -4.189284e-002 3.096339e-001
    outer loop
      vertex  6.057407e+001 -3.538475e+001 -7.515168e+002
      vertex  5.945119e+001 -1.638018e+001 -7.455006e+002
      vertex  5.761144e+001 -3.740312e+001 -7.427007e+002
    endloop
  endfacet
  facet normal -4.809135e-001 1.728212e-001 8.595668e-001
    outer loop
      vertex  -5.001381e+001 -4.346843e+001 -7.115350e+002
      vertex  -4.415717e+001 -2.560794e+001 -7.118493e+002
      vertex  -5.569410e+001 -2.173501e+001 -7.190827e+002
    endloop
  endfacet
  facet normal 3.074903e-001 -4.629658e-001 8.313317e-001
    outer loop
      vertex  -8.805256e+000 -3.036818e+001 -6.895529e+002
      vertex  -1.721215e+001 -3.368489e+001 -6.882904e+002
      vertex  -3.012758e+000 -3.527131e+001 -6.944259e+002
    endloop
  endfacet
  facet normal 5.665388e-001 2.710886e-002 8.235891e-001
    outer loop
      vertex  2.870817e+001 -5.388995e+001 -7.079328e+002
      vertex  3.609913e+001 -2.289908e+001 -7.140370e+002
      vertex  2.299757e+001 -4.269794e+001 -7.043729e+002
    endloop
  endfacet
  facet normal 1.843524e-002 -6.771227e-001 7.356391e-001
    outer loop
      vertex  -5.001381e+001 -4.346843e+001 -7.115350e+002
      vertex  -3.945761e+001 -4.047785e+001 -7.090469e+002
      vertex  -3.721893e+001 -3.495881e+001 -7.040229e+002
    endloop
  endfacet
  facet normal 4.360195e-001 -2.818739e-002 8.994957e-001
    outer loop
      vertex  1.239394e+001 -4.348847e+001 -7.021516e+002
      vertex  1.109911e+001 -3.502847e+001 -7.012589e+002
      vertex  -3.012758e+000 -3.527131e+001 -6.944259e+002
    endloop
  endfacet
  facet normal 6.830254e-001 -2.594947e-002 7.299334e-001
    outer loop
      vertex  4.474042e+001 -2.300010e+001 -7.218366e+002
      vertex  2.870817e+001 -5.388995e+001 -7.079328e+002
      vertex  3.869482e+001 -4.905799e+001 -7.171059e+002
    endloop
  endfacet
  facet normal -9.343757e-001 -1.796525e-001 3.076800e-001
    outer loop
      vertex  -7.473847e+001 -4.889707e+001 -7.466920e+002
      vertex  -7.177280e+001 -4.651163e+001 -7.362929e+002
      vertex  -7.764648e+001 -3.722031e+001 -7.487052e+002
    endloop
  endfacet
  facet normal -6.983153e-001 1.035644e-001 7.082585e-001
    outer loop
      vertex  -5.001381e+001 -4.346843e+001 -7.115350e+002
      vertex  -7.059776e+001 -2.953027e+001 -7.338681e+002
      vertex  -5.553815e+001 -5.149948e+001 -7.158075e+002
    endloop
  endfacet
  facet normal -7.358794e-001 -2.676703e-001 6.219599e-001
    outer loop
      vertex  -2.362681e+001 -4.311132e+001 -6.914498e+002
      vertex  -3.721893e+001 -3.495881e+001 -7.040229e+002
      vertex  -3.945761e+001 -4.047785e+001 -7.090469e+002
    endloop
  endfacet
  facet normal 2.095767e-001 -7.083640e-002 9.752229e-001
    outer loop
      vertex  1.239394e+001 -4.348847e+001 -7.021516e+002
      vertex  2.299757e+001 -4.269794e+001 -7.043729e+002
      vertex  1.109911e+001 -3.502847e+001 -7.012589e+002
    endloop
  endfacet
  facet normal -7.993839e-002 5.305262e-001 8.438909e-001
    outer loop
      vertex  -2.362681e+001 -4.311132e+001 -6.914498e+002
      vertex  -7.725530e+000 -4.342233e+001 -6.897480e+002
      vertex  -3.012758e+000 -3.527131e+001 -6.944259e+002
    endloop
  endfacet
  facet normal 7.640508e-001 -6.065773e-002 6.422982e-001
    outer loop
      vertex  3.869482e+001 -4.905799e+001 -7.171059e+002
      vertex  4.893008e+001 -3.709169e+001 -7.281512e+002
      vertex  4.474042e+001 -2.300010e+001 -7.218366e+002
    endloop
  endfacet
  facet normal 4.637032e-001 3.714777e-002 8.852115e-001
    outer loop
      vertex  1.239394e+001 -4.348847e+001 -7.021516e+002
      vertex  -3.012758e+000 -3.527131e+001 -6.944259e+002
      vertex  7.062061e+000 -4.837862e+001 -6.991534e+002
    endloop
  endfacet
  facet normal 5.644464e-001 1.404731e-001 8.134295e-001
    outer loop
      vertex  7.062061e+000 -4.837862e+001 -6.991534e+002
      vertex  -3.012758e+000 -3.527131e+001 -6.944259e+002
      vertex  -7.725530e+000 -4.342233e+001 -6.897480e+002
    endloop
  endfacet
  facet normal 8.981377e-001 -2.544751e-001 3.585958e-001
    outer loop
      vertex  4.919131e+001 -5.414717e+001 -7.334940e+002
      vertex  5.917226e+001 -4.675729e+001 -7.532481e+002
      vertex  5.761144e+001 -3.740312e+001 -7.427007e+002
    endloop
  endfacet
  facet normal -7.264500e-001 1.352590e-001 6.737770e-001
    outer loop
      vertex  -2.362681e+001 -4.311132e+001 -6.914498e+002
      vertex  -3.945761e+001 -4.047785e+001 -7.090469e+002
      vertex  -3.635809e+001 -4.880928e+001 -7.040325e+002
    endloop
  endfacet
  facet normal -7.872385e-001 -3.344888e-002 6.157408e-001
    outer loop
      vertex  -7.059776e+001 -2.953027e+001 -7.338681e+002
      vertex  -7.177280e+001 -4.651163e+001 -7.362929e+002
      vertex  -5.553815e+001 -5.149948e+001 -7.158075e+002
    endloop
  endfacet
  facet normal 8.480989e-001 -1.465145e-001 5.091776e-001
    outer loop
      vertex  4.919131e+001 -5.414717e+001 -7.334940e+002
      vertex  5.761144e+001 -3.740312e+001 -7.427007e+002
      vertex  4.893008e+001 -3.709169e+001 -7.281512e+002
    endloop
  endfacet
  facet normal -3.161141e-001 4.001252e-001 8.602161e-001
    outer loop
      vertex  -3.635809e+001 -4.880928e+001 -7.040325e+002
      vertex  -3.945761e+001 -4.047785e+001 -7.090469e+002
      vertex  -5.001381e+001 -4.346843e+001 -7.115350e+002
    endloop
  endfacet
  facet normal 3.776178e-001 -4.297687e-001 8.201851e-001
    outer loop
      vertex  -2.360842e+000 -5.111974e+001 -6.962513e+002
      vertex  7.062061e+000 -4.837862e+001 -6.991534e+002
      vertex  -7.725530e+000 -4.342233e+001 -6.897480e+002
    endloop
  endfacet
  facet normal -9.479334e-002 -6.302878e-001 7.705527e-001
    outer loop
      vertex  -2.362681e+001 -4.311132e+001 -6.914498e+002
      vertex  -1.862413e+001 -5.005932e+001 -6.965176e+002
      vertex  -7.725530e+000 -4.342233e+001 -6.897480e+002
    endloop
  endfacet
  facet normal -3.205746e-001 -6.979299e-001 6.404107e-001
    outer loop
      vertex  -3.635809e+001 -4.880928e+001 -7.040325e+002
      vertex  -1.862413e+001 -5.005932e+001 -6.965176e+002
      vertex  -2.362681e+001 -4.311132e+001 -6.914498e+002
    endloop
  endfacet
  facet normal -5.097667e-001 -1.036886e-001 8.540413e-001
    outer loop
      vertex  -5.553815e+001 -5.149948e+001 -7.158075e+002
      vertex  -3.635809e+001 -4.880928e+001 -7.040325e+002
      vertex  -5.001381e+001 -4.346843e+001 -7.115350e+002
    endloop
  endfacet
  facet normal -5.564161e-002 -6.667140e-001 7.432337e-001
    outer loop
      vertex  -2.360842e+000 -5.111974e+001 -6.962513e+002
      vertex  -7.725530e+000 -4.342233e+001 -6.897480e+002
      vertex  -1.862413e+001 -5.005932e+001 -6.965176e+002
    endloop
  endfacet
  facet normal 2.149957e-001 -1.946999e-001 9.570104e-001
    outer loop
      vertex  2.870817e+001 -5.388995e+001 -7.079328e+002
      vertex  2.299757e+001 -4.269794e+001 -7.043729e+002
      vertex  1.239394e+001 -4.348847e+001 -7.021516e+002
    endloop
  endfacet
  facet normal 8.063185e-001 -1.655329e-001 5.678462e-001
    outer loop
      vertex  4.919131e+001 -5.414717e+001 -7.334940e+002
      vertex  4.893008e+001 -3.709169e+001 -7.281512e+002
      vertex  3.869482e+001 -4.905799e+001 -7.171059e+002
    endloop
  endfacet
  facet normal -8.978719e-001 -2.976985e-001 3.243480e-001
    outer loop
      vertex  -7.473847e+001 -4.889707e+001 -7.466920e+002
      vertex  -6.547144e+001 -6.280169e+001 -7.338008e+002
      vertex  -7.177280e+001 -4.651163e+001 -7.362929e+002
    endloop
  endfacet
  facet normal -3.446715e-001 3.490224e-001 8.714269e-001
    outer loop
      vertex  -1.862413e+001 -5.005932e+001 -6.965176e+002
      vertex  -3.635809e+001 -4.880928e+001 -7.040325e+002
      vertex  -3.048499e+001 -5.629266e+001 -6.987123e+002
    endloop
  endfacet
  facet normal -7.900255e-001 -2.179375e-001 5.730296e-001
    outer loop
      vertex  -7.177280e+001 -4.651163e+001 -7.362929e+002
      vertex  -6.547144e+001 -6.280169e+001 -7.338008e+002
      vertex  -5.553815e+001 -5.149948e+001 -7.158075e+002
    endloop
  endfacet
  facet normal 7.149966e-001 -2.145542e-001 6.653919e-001
    outer loop
      vertex  4.207879e+001 -6.158441e+001 -7.247813e+002
      vertex  3.869482e+001 -4.905799e+001 -7.171059e+002
      vertex  2.870817e+001 -5.388995e+001 -7.079328e+002
    endloop
  endfacet
  facet normal 8.177698e-001 -1.235211e-001 5.621344e-001
    outer loop
      vertex  4.207879e+001 -6.158441e+001 -7.247813e+002
      vertex  4.919131e+001 -5.414717e+001 -7.334940e+002
      vertex  3.869482e+001 -4.905799e+001 -7.171059e+002
    endloop
  endfacet
  facet normal 4.038927e-001 1.302101e-001 9.054921e-001
    outer loop
      vertex  2.870817e+001 -5.388995e+001 -7.079328e+002
      vertex  1.239394e+001 -4.348847e+001 -7.021516e+002
      vertex  1.495219e+001 -6.492237e+001 -7.002105e+002
    endloop
  endfacet
  facet normal -3.914091e-001 4.652341e-001 7.939497e-001
    outer loop
      vertex  -3.048499e+001 -5.629266e+001 -6.987123e+002
      vertex  -2.939374e+001 -6.377270e+001 -6.937913e+002
      vertex  -1.862413e+001 -5.005932e+001 -6.965176e+002
    endloop
  endfacet
  facet normal 1.864295e-002 5.029249e-001 8.641290e-001
    outer loop
      vertex  -2.360842e+000 -5.111974e+001 -6.962513e+002
      vertex  -1.862413e+001 -5.005932e+001 -6.965176e+002
      vertex  -1.287773e+001 -6.320251e+001 -6.889922e+002
    endloop
  endfacet
  facet normal 1.777669e-001 3.589630e-001 9.162666e-001
    outer loop
      vertex  -2.360842e+000 -5.111974e+001 -6.962513e+002
      vertex  -1.246801e-001 -6.516665e+001 -6.911821e+002
      vertex  7.062061e+000 -4.837862e+001 -6.991534e+002
    endloop
  endfacet
  facet normal -5.251428e-001 2.024074e-002 8.507734e-001
    outer loop
      vertex  -3.635809e+001 -4.880928e+001 -7.040325e+002
      vertex  -5.553815e+001 -5.149948e+001 -7.158075e+002
      vertex  -4.510954e+001 -6.509010e+001 -7.090471e+002
    endloop
  endfacet
  facet normal -6.082188e-001 8.382092e-002 7.893313e-001
    outer loop
      vertex  -3.635809e+001 -4.880928e+001 -7.040325e+002
      vertex  -4.510954e+001 -6.509010e+001 -7.090471e+002
      vertex  -3.048499e+001 -5.629266e+001 -6.987123e+002
    endloop
  endfacet
  facet normal 3.932247e-001 1.293718e-001 9.102951e-001
    outer loop
      vertex  1.495219e+001 -6.492237e+001 -7.002105e+002
      vertex  1.239394e+001 -4.348847e+001 -7.021516e+002
      vertex  7.062061e+000 -4.837862e+001 -6.991534e+002
    endloop
  endfacet
  facet normal 8.491706e-001 -3.654377e-001 3.812671e-001
    outer loop
      vertex  4.919131e+001 -5.414717e+001 -7.334940e+002
      vertex  4.207879e+001 -6.158441e+001 -7.247813e+002
      vertex  4.340937e+001 -6.931586e+001 -7.351552e+002
    endloop
  endfacet
  facet normal -2.695789e-001 3.870190e-001 8.817843e-001
    outer loop
      vertex  -1.287773e+001 -6.320251e+001 -6.889922e+002
      vertex  -1.862413e+001 -5.005932e+001 -6.965176e+002
      vertex  -2.939374e+001 -6.377270e+001 -6.937913e+002
    endloop
  endfacet
  facet normal -7.903483e-001 -2.173191e-001 5.728194e-001
    outer loop
      vertex  -6.547144e+001 -6.280169e+001 -7.338008e+002
      vertex  -5.118033e+001 -6.877747e+001 -7.163498e+002
      vertex  -5.553815e+001 -5.149948e+001 -7.158075e+002
    endloop
  endfacet
  facet normal -7.020646e-001 -1.985381e-001 6.838771e-001
    outer loop
      vertex  -4.510954e+001 -6.509010e+001 -7.090471e+002
      vertex  -5.553815e+001 -5.149948e+001 -7.158075e+002
      vertex  -5.118033e+001 -6.877747e+001 -7.163498e+002
    endloop
  endfacet
  facet normal 2.115870e-001 3.613955e-001 9.080881e-001
    outer loop
      vertex  -1.246801e-001 -6.516665e+001 -6.911821e+002
      vertex  -2.360842e+000 -5.111974e+001 -6.962513e+002
      vertex  -1.287773e+001 -6.320251e+001 -6.889922e+002
    endloop
  endfacet
  facet normal 6.969989e-001 -2.557391e-001 6.699179e-001
    outer loop
      vertex  4.207879e+001 -6.158441e+001 -7.247813e+002
      vertex  2.870817e+001 -5.388995e+001 -7.079328e+002
      vertex  2.135203e+001 -7.092416e+001 -7.067820e+002
    endloop
  endfacet
  facet normal -6.701261e-001 3.372435e-001 6.612093e-001
    outer loop
      vertex  -3.048499e+001 -5.629266e+001 -6.987123e+002
      vertex  -4.510954e+001 -6.509010e+001 -7.090471e+002
      vertex  -2.939374e+001 -6.377270e+001 -6.937913e+002
    endloop
  endfacet
  facet normal 5.025979e-001 1.857498e-001 8.443295e-001
    outer loop
      vertex  -1.246801e-001 -6.516665e+001 -6.911821e+002
      vertex  1.495219e+001 -6.492237e+001 -7.002105e+002
      vertex  7.062061e+000 -4.837862e+001 -6.991534e+002
    endloop
  endfacet
  facet normal 6.910957e-001 -4.611462e-001 5.565348e-001
    outer loop
      vertex  4.207879e+001 -6.158441e+001 -7.247813e+002
      vertex  2.135203e+001 -7.092416e+001 -7.067820e+002
      vertex  3.296575e+001 -7.320258e+001 -7.230917e+002
    endloop
  endfacet
  facet normal -6.887997e-001 -9.919004e-002 7.181339e-001
    outer loop
      vertex  -4.510954e+001 -6.509010e+001 -7.090471e+002
      vertex  -3.559875e+001 -7.413327e+001 -7.011738e+002
      vertex  -2.939374e+001 -6.377270e+001 -6.937913e+002
    endloop
  endfacet
  facet normal 5.997835e-001 -2.067948e-001 7.729785e-001
    outer loop
      vertex  2.870817e+001 -5.388995e+001 -7.079328e+002
      vertex  1.495219e+001 -6.492237e+001 -7.002105e+002
      vertex  2.135203e+001 -7.092416e+001 -7.067820e+002
    endloop
  endfacet
  facet normal 7.272207e-001 -5.024006e-001 4.677006e-001
    outer loop
      vertex  3.296575e+001 -7.320258e+001 -7.230917e+002
      vertex  4.340937e+001 -6.931586e+001 -7.351552e+002
      vertex  4.207879e+001 -6.158441e+001 -7.247813e+002
    endloop
  endfacet
  facet normal -2.802953e-001 5.147343e-002 9.585328e-001
    outer loop
      vertex  -1.287773e+001 -6.320251e+001 -6.889922e+002
      vertex  -2.939374e+001 -6.377270e+001 -6.937913e+002
      vertex  -2.148718e+001 -7.137132e+001 -6.910712e+002
    endloop
  endfacet
  facet normal -7.226458e-001 -5.648830e-001 3.983594e-001
    outer loop
      vertex  -6.547144e+001 -6.280169e+001 -7.338008e+002
      vertex  -5.504719e+001 -7.345744e+001 -7.300008e+002
      vertex  -5.118033e+001 -6.877747e+001 -7.163498e+002
    endloop
  endfacet
  facet normal 5.049209e-001 -2.087857e-001 8.375341e-001
    outer loop
      vertex  -1.246801e-001 -6.516665e+001 -6.911821e+002
      vertex  6.485650e+000 -7.631968e+001 -6.979475e+002
      vertex  1.495219e+001 -6.492237e+001 -7.002105e+002
    endloop
  endfacet
  facet normal 5.614197e-001 -2.611377e-001 7.852484e-001
    outer loop
      vertex  6.485650e+000 -7.631968e+001 -6.979475e+002
      vertex  2.135203e+001 -7.092416e+001 -7.067820e+002
      vertex  1.495219e+001 -6.492237e+001 -7.002105e+002
    endloop
  endfacet
  facet normal 6.240066e-001 -5.786263e-001 5.251738e-001
    outer loop
      vertex  2.135203e+001 -7.092416e+001 -7.067820e+002
      vertex  2.245872e+001 -8.021031e+001 -7.183283e+002
      vertex  3.296575e+001 -7.320258e+001 -7.230917e+002
    endloop
  endfacet
  facet normal 3.222450e-001 -3.439957e-001 8.819440e-001
    outer loop
      vertex  -1.246801e-001 -6.516665e+001 -6.911821e+002
      vertex  -8.231277e+000 -7.495222e+001 -6.920369e+002
      vertex  6.485650e+000 -7.631968e+001 -6.979475e+002
    endloop
  endfacet
  facet normal 3.091873e-003 -2.496912e-001 9.683205e-001
    outer loop
      vertex  -2.148718e+001 -7.137132e+001 -6.910712e+002
      vertex  -8.231277e+000 -7.495222e+001 -6.920369e+002
      vertex  -1.287773e+001 -6.320251e+001 -6.889922e+002
    endloop
  endfacet
  facet normal 1.362446e-001 -1.976665e-001 9.707551e-001
    outer loop
      vertex  -8.231277e+000 -7.495222e+001 -6.920369e+002
      vertex  -1.246801e-001 -6.516665e+001 -6.911821e+002
      vertex  -1.287773e+001 -6.320251e+001 -6.889922e+002
    endloop
  endfacet
  facet normal -6.598758e-001 -6.334628e-001 4.040900e-001
    outer loop
      vertex  -5.504719e+001 -7.345744e+001 -7.300008e+002
      vertex  -4.148159e+001 -7.787609e+001 -7.147751e+002
      vertex  -5.118033e+001 -6.877747e+001 -7.163498e+002
    endloop
  endfacet
  facet normal -5.279558e-001 -2.599250e-001 8.085182e-001
    outer loop
      vertex  -2.148718e+001 -7.137132e+001 -6.910712e+002
      vertex  -2.939374e+001 -6.377270e+001 -6.937913e+002
      vertex  -3.559875e+001 -7.413327e+001 -7.011738e+002
    endloop
  endfacet
  facet normal -7.165855e-001 -1.632436e-001 6.781273e-001
    outer loop
      vertex  -3.559875e+001 -7.413327e+001 -7.011738e+002
      vertex  -4.510954e+001 -6.509010e+001 -7.090471e+002
      vertex  -5.118033e+001 -6.877747e+001 -7.163498e+002
    endloop
  endfacet
  facet normal -6.488792e-001 -6.138680e-001 4.495797e-001
    outer loop
      vertex  -3.559875e+001 -7.413327e+001 -7.011738e+002
      vertex  -5.118033e+001 -6.877747e+001 -7.163498e+002
      vertex  -4.148159e+001 -7.787609e+001 -7.147751e+002
    endloop
  endfacet
  facet normal -4.169511e-001 -5.410820e-001 7.303302e-001
    outer loop
      vertex  -3.559875e+001 -7.413327e+001 -7.011738e+002
      vertex  -2.257821e+001 -7.817249e+001 -6.967328e+002
      vertex  -2.148718e+001 -7.137132e+001 -6.910712e+002
    endloop
  endfacet
  facet normal 4.885811e-001 -6.564435e-001 5.747785e-001
    outer loop
      vertex  2.245872e+001 -8.021031e+001 -7.183283e+002
      vertex  2.135203e+001 -7.092416e+001 -7.067820e+002
      vertex  1.282927e+001 -8.666167e+001 -7.175109e+002
    endloop
  endfacet
  facet normal -1.125586e-001 -6.249936e-001 7.724724e-001
    outer loop
      vertex  -2.257821e+001 -7.817249e+001 -6.967328e+002
      vertex  -8.231277e+000 -7.495222e+001 -6.920369e+002
      vertex  -2.148718e+001 -7.137132e+001 -6.910712e+002
    endloop
  endfacet
  facet normal 4.936216e-001 -7.994346e-001 3.424062e-001
    outer loop
      vertex  6.278840e+000 -8.124276e+001 -7.091436e+002
      vertex  2.135203e+001 -7.092416e+001 -7.067820e+002
      vertex  6.485650e+000 -7.631968e+001 -6.979475e+002
    endloop
  endfacet
  facet normal 6.005465e-002 -8.992894e-001 4.332112e-001
    outer loop
      vertex  -2.257821e+001 -7.817249e+001 -6.967328e+002
      vertex  -1.545043e+001 -8.200845e+001 -7.056839e+002
      vertex  -8.231277e+000 -7.495222e+001 -6.920369e+002
    endloop
  endfacet
  facet normal 3.365922e-001 -6.480411e-001 6.831899e-001
    outer loop
      vertex  6.278840e+000 -8.124276e+001 -7.091436e+002
      vertex  1.282927e+001 -8.666167e+001 -7.175109e+002
      vertex  2.135203e+001 -7.092416e+001 -7.067820e+002
    endloop
  endfacet
  facet normal -4.193014e-001 -6.999348e-001 5.781673e-001
    outer loop
      vertex  -4.148159e+001 -7.787609e+001 -7.147751e+002
      vertex  -3.760223e+001 -8.674068e+001 -7.226932e+002
      vertex  -2.431437e+001 -8.536504e+001 -7.113912e+002
    endloop
  endfacet
  facet normal 2.436368e-001 -7.158705e-001 6.543474e-001
    outer loop
      vertex  1.282927e+001 -8.666167e+001 -7.175109e+002
      vertex  6.278840e+000 -8.124276e+001 -7.091436e+002
      vertex  -7.026968e+000 -8.547084e+001 -7.088149e+002
    endloop
  endfacet
  facet normal 1.569328e-001 -4.245650e-001 8.916931e-001
    outer loop
      vertex  6.278840e+000 -8.124276e+001 -7.091436e+002
      vertex  -1.545043e+001 -8.200845e+001 -7.056839e+002
      vertex  -7.026968e+000 -8.547084e+001 -7.088149e+002
    endloop
  endfacet
  facet normal 4.967823e-001 -6.719117e-001 5.493105e-001
    outer loop
      vertex  2.849586e+001 -8.687444e+001 -7.319396e+002
      vertex  2.245872e+001 -8.021031e+001 -7.183283e+002
      vertex  1.282927e+001 -8.666167e+001 -7.175109e+002
    endloop
  endfacet
  facet normal -9.586699e-002 -7.857822e-001 6.110286e-001
    outer loop
      vertex  -2.431437e+001 -8.536504e+001 -7.113912e+002
      vertex  -7.026968e+000 -8.547084e+001 -7.088149e+002
      vertex  -1.545043e+001 -8.200845e+001 -7.056839e+002
    endloop
  endfacet
endsolid vcg
