solid Data_0 generated by Konica Minolta Sensing, Inc.
  facet normal -6.936813e-001 4.615545e-001 5.529681e-001
    outer loop
      vertex -6.157990e+001 9.283347e+001 -7.638261e+002
      vertex -6.154685e+001 9.237978e+001 -7.634059e+002
      vertex -6.109391e+001 9.230564e+001 -7.627759e+002
    endloop
  endfacet
  facet normal -8.063030e-001 2.868636e-001 5.172859e-001
    outer loop
      vertex -6.109391e+001 9.230564e+001 -7.627759e+002
      vertex -6.111548e+001 9.274191e+001 -7.630514e+002
      vertex -6.157990e+001 9.283347e+001 -7.638261e+002
    endloop
  endfacet
  facet normal -7.596677e-001 4.854053e-001 4.327664e-001
    outer loop
      vertex 9.460525e+001 -9.052318e+001 -7.456545e+002
      vertex 9.464590e+001 -9.016707e+001 -7.459825e+002
      vertex 9.431414e+001 -9.022758e+001 -7.464970e+002
    endloop
  endfacet
endsolid
